<svg xmlns="http://www.w3.org/2000/svg" xmlns:xlink="http://www.w3.org/1999/xlink" viewBox="0 0 664.7 157.15"><defs><style>.cls-1{fill:url(#linear-gradient);}.cls-2{fill:url(#linear-gradient-2);}.cls-3{fill:url(#linear-gradient-3);}.cls-4{fill:#e8168b;}.cls-5{fill:#231f20;}</style><linearGradient id="linear-gradient" x1="365.36" y1="147.2" x2="458.89" y2="147.2" gradientTransform="translate(169.15 91.37) rotate(-22.71)" gradientUnits="userSpaceOnUse"><stop offset="0.04" stop-color="#fff"/><stop offset="0.12" stop-color="#c6812a"/><stop offset="0.23" stop-color="#ecbb60"/><stop offset="0.35" stop-color="#f0e58b"/><stop offset="0.48" stop-color="#fff"/><stop offset="0.6" stop-color="#f0e58b"/><stop offset="0.72" stop-color="#ecbb60"/><stop offset="0.84" stop-color="#c6812a"/><stop offset="0.85" stop-color="#c88530"/><stop offset="0.86" stop-color="#cc8f42"/><stop offset="0.88" stop-color="#d4a05f"/><stop offset="0.9" stop-color="#dfb887"/><stop offset="0.92" stop-color="#edd7bb"/><stop offset="0.94" stop-color="#fdfbf9"/><stop offset="0.94" stop-color="#fff"/></linearGradient><linearGradient id="linear-gradient-2" x1="579.94" y1="42.62" x2="631.43" y2="125.48" gradientUnits="userSpaceOnUse"><stop offset="0.27" stop-color="#b4782b"/><stop offset="0.53" stop-color="#faf0b7"/><stop offset="0.72" stop-color="#cb832a"/><stop offset="1" stop-color="#fcefab"/></linearGradient><linearGradient id="linear-gradient-3" x1="410.88" y1="66.99" x2="412.89" y2="212.84" gradientTransform="translate(169.15 91.37) rotate(-22.71)" gradientUnits="userSpaceOnUse"><stop offset="0" stop-color="#fcefab"/><stop offset="0.27" stop-color="#b4782b"/><stop offset="0.53" stop-color="#faf0b7"/><stop offset="0.72" stop-color="#cb832a"/><stop offset="1" stop-color="#fcefab"/></linearGradient></defs><title>Asset 1</title><g id="Layer_2" data-name="Layer 2"><g id="Isolation_Mode" data-name="Isolation Mode"><path class="cls-1" d="M613.23,6,597.44,21.8c-2.63,2.64-5.28,5.24-7.88,7.91l-6.46,6.57c-6.48-2.13-13-4.31-19.46-6.37l-10.75-3.44c-3.58-1.14-7.16-2.31-10.75-3.43l-4-1.26,1.4,3.82,3.9,10.6c1.3,3.53,2.58,7.06,3.92,10.58l4,10.57c1.36,3.52,2.69,7,4.09,10.54-.94-3.65-1.93-7.28-2.89-10.92l-3-10.9c-1-3.63-2-7.25-3-10.87l-1.94-6.84L551.3,31l10.52,4.08c7,2.74,14.07,5.34,21.1,8l1.83.7,1.53-1.44,8.17-7.62c2.73-2.53,5.41-5.11,8.12-7.67l10-9.45c.32,5.46.66,10.93,1,16.4l1.62,24.88.13,2L616.88,62l18.28,13.22q5.94,4.23,11.85,8.48L633.18,88c-3.59,1.12-7.18,2.21-10.77,3.36l-10.74,3.45-1.71.55L609.48,97l-3.25,10.8c-1.09,3.6-2.18,7.2-3.22,10.82l-5.2,17.82-2-2.62c-1.51-2-3-4-4.55-5.94l-4.6-5.9c-1.56-2-3.1-3.92-4.68-5.85,1.18,2.2,2.42,4.37,3.63,6.55l3.73,6.5c1.23,2.17,2.51,4.31,3.77,6.45l3.81,6.44,2.16,3.67,1.5-4.18,7.63-21.24c1.29-3.54,2.53-7.09,3.76-10.64l3.13-9,9.3-2.54c3.63-1,7.24-2,10.86-3.05L657,89l7.7-2.17-6.49-4.87c-6-4.51-12.1-8.94-18.15-13.41L623.44,56.36l-1.6-22.91c-.64-8.29-1.19-16.59-1.89-24.87L619.23,0Z"/><path class="cls-2" d="M589,102.24l-2.48-3.18c-.84-1-1.66-2.1-2.52-3.14.64,1.18,1.31,2.35,2,3.52l2,3.49c.66,1.17,1.35,2.32,2,3.48l2,3.46,1.16,2,.81-2.24,4.1-11.43q1-2.85,2-5.72l1.69-4.82,5-1.36c2-.53,3.9-1.1,5.84-1.64l11.68-3.3,4.14-1.17L625,77.54c-3.24-2.42-6.51-4.8-9.76-7.21l-8.93-6.53-.86-12.32c-.34-4.45-.64-8.91-1-13.37L604,33.5l-3.22,3.23-8.49,8.49c-1.42,1.42-2.84,2.82-4.24,4.25L584.6,53c-3.49-1.14-7-2.31-10.46-3.42l-5.78-1.85c-1.93-.61-3.85-1.24-5.78-1.84l-2.17-.68.75,2,2.1,5.7c.7,1.9,1.39,3.8,2.11,5.69l2.14,5.69c.73,1.88,1.45,3.78,2.19,5.66-.5-2-1-3.92-1.55-5.87l-1.6-5.86c-.53-2-1.09-3.9-1.64-5.85l-1-3.67,3.63,1.41,5.66,2.19c3.77,1.48,7.56,2.88,11.34,4.32l1,.37.83-.77,4.39-4.1c1.47-1.36,2.91-2.75,4.36-4.12L600.42,43c.17,2.94.36,5.87.53,8.81l.88,13.38.07,1.07.86.62L612.59,74c2.13,1.51,4.25,3,6.37,4.56l-7.43,2.31c-1.93.6-3.87,1.19-5.79,1.81L600,84.49l-.92.29-.26.85L597,91.44c-.58,1.94-1.17,3.88-1.73,5.82l-2.79,9.58-1.07-1.41C590.63,104.37,589.83,103.29,589,102.24Z"/><path class="cls-3" d="M613.23,6,597.44,21.8c-2.63,2.64-5.28,5.24-7.88,7.91l-6.46,6.57c-6.48-2.13-13-4.31-19.46-6.37l-10.75-3.44c-3.58-1.14-7.16-2.31-10.75-3.43l-4-1.26,1.4,3.82,3.9,10.6c1.3,3.53,2.58,7.06,3.92,10.58l4,10.57c1.36,3.52,2.69,7,4.09,10.54-.94-3.65-1.93-7.28-2.89-10.92l-3-10.9c-1-3.63-2-7.25-3-10.87l-1.94-6.84L551.3,31l10.52,4.08c7,2.74,14.07,5.34,21.1,8l1.83.7,1.53-1.44,8.17-7.62c2.73-2.53,5.41-5.11,8.12-7.67l10-9.45c.32,5.46.66,10.93,1,16.4l1.62,24.88.13,2L616.88,62l18.28,13.22q5.94,4.23,11.85,8.48L633.18,88c-3.59,1.12-7.18,2.21-10.77,3.36l-10.74,3.45-1.71.55L609.48,97l-3.25,10.8c-1.09,3.6-2.18,7.2-3.22,10.82l-5.2,17.82-2-2.62c-1.51-2-3-4-4.55-5.94l-4.6-5.9c-1.56-2-3.1-3.92-4.68-5.85,1.18,2.2,2.42,4.37,3.63,6.55l3.73,6.5c1.23,2.17,2.51,4.31,3.77,6.45l3.81,6.44,2.16,3.67,1.5-4.18,7.63-21.24c1.29-3.54,2.53-7.09,3.76-10.64l3.13-9,9.3-2.54c3.63-1,7.24-2,10.86-3.05L657,89l7.7-2.17-6.49-4.87c-6-4.51-12.1-8.94-18.15-13.41L623.44,56.36l-1.6-22.91c-.64-8.29-1.19-16.59-1.89-24.87L619.23,0Z"/><rect class="cls-4" x="324.87" y="70.18" width="24.57" height="7.88"/><path class="cls-5" d="M481.8,70.2v47H474V97.61H450.51v19.55H442.7V97.61l7.81-7.86H474V70.2Z"/><path class="cls-5" d="M579.78,85.87a15.64,15.64,0,0,1-15.62,15.68H548.49v15.61h-7.81V93.68h23.48a7.42,7.42,0,0,0,5.46-2.29A7.55,7.55,0,0,0,572,85.87a7.92,7.92,0,0,0-7.81-7.81H516.55l-7.8-7.86h55.41a15,15,0,0,1,11,4.58A15.31,15.31,0,0,1,579.78,85.87Z"/><path class="cls-5" d="M527.81,77a23.17,23.17,0,0,1,0,33.21,23.55,23.55,0,0,1-40.15-16.6A23.48,23.48,0,0,1,527.81,77Zm-27.73,5.54a15.85,15.85,0,0,0,0,22.19,15.69,15.69,0,0,0,22.2-22.19,15.72,15.72,0,0,0-22.2,0Z"/><polygon class="cls-4" points="429.64 78.08 410.29 78.08 416.55 70.07 429.64 70.07 429.64 78.08"/><rect class="cls-4" x="397.27" y="109.38" width="23.29" height="8.01"/><rect class="cls-4" x="203.51" y="70.2" width="7.72" height="46.88"/><path class="cls-4" d="M193.48,93.68a13,13,0,0,1,4.11,9.8,13.51,13.51,0,0,1-4,9.63,13.9,13.9,0,0,1-4.41,3,13.31,13.31,0,0,1-5.28,1l-16.35.14v-7.86l16.35-.14a5.84,5.84,0,0,0,2.23-.41,5,5,0,0,0,1.94-1.3,5.63,5.63,0,0,0,1.23-1.87,5.55,5.55,0,0,0,0-4.47,5.78,5.78,0,0,0-1.23-1.88,6,6,0,0,0-1.82-1.29,6.56,6.56,0,0,0-2.35-.47H158.49v-7.8h25.42a5,5,0,0,0,2.23-.47,5,5,0,0,0,1.94-1.3,5.63,5.63,0,0,0,1.23-1.87,5.69,5.69,0,0,0,0-4.53,5.63,5.63,0,0,0-1.23-1.87,5,5,0,0,0-1.94-1.3,5.84,5.84,0,0,0-2.23-.41H159l-4-7.86h28.89a13.74,13.74,0,0,1,5.28,1,13.9,13.9,0,0,1,4.41,3,13.68,13.68,0,0,1-.12,19.43Z"/><path class="cls-5" d="M234.81,70.2v7.86H211.32l-7.81-7.86ZM211.32,89.81h23.49v7.8h-31.3v-7.8Zm0,19.49h23.49v7.86h-31.3v-.64Z"/><path class="cls-5" d="M332.73,97.61A18.71,18.71,0,0,1,327,111.47a19.52,19.52,0,0,1-33.34-13.86V70.2h7.81V97.61a11.63,11.63,0,0,0,11.68,11.69,11.94,11.94,0,0,0,11.8-11.69Z"/><path class="cls-5" d="M365.55,70.2v7.86H349.94v39.1h-7.87v-47Z"/><path class="cls-5" d="M391.43,100.08V100L378.1,117.16h-10L386.5,93.68,368.07,70.2h10l13.33,17.14L404.82,70.2h9.92L396.42,93.68Zm0,0L378.1,117.16,391.43,100Z"/><path class="cls-4" d="M432.72,93.8a13.21,13.21,0,0,0-9.69-4H411.35a5.77,5.77,0,0,1-5.84-5.61l-5.63,7.22a15.18,15.18,0,0,0,1.78,2.2,13.24,13.24,0,0,0,9.69,4H423a5.64,5.64,0,0,1,4.17,1.76,5.84,5.84,0,0,1,1.76,4.11,5.75,5.75,0,0,1-.47,2.29,5,5,0,0,1-1.23,1.88,5.53,5.53,0,0,1-1.94,1.24,5.9,5.9,0,0,1-2.29.41v7.86a13.65,13.65,0,0,0,9.69-23.36Z"/><polygon class="cls-5" points="442.46 117.16 442.46 70.91 442.46 69.61 450.27 69.61 450.27 70.91 450.27 117.16 442.46 117.16 442.46 117.16"/><polygon class="cls-5" points="85.23 117.19 61.7 70.23 38.21 117.2 46.9 117.2 50.89 109.34 54.77 101.58 61.7 87.79 69.47 103.32 58.67 103.32 60.91 107.82 71.73 107.82 76.42 117.19 85.23 117.19"/><polygon class="cls-5" points="176.34 117.19 152.81 70.23 129.32 117.2 138.01 117.2 142.01 109.34 145.88 101.58 152.81 87.79 160.58 103.32 149.78 103.32 152.02 107.82 162.84 107.82 167.53 117.19 176.34 117.19"/><polygon class="cls-5" points="290.76 117.19 267.23 70.23 243.75 117.2 252.44 117.2 256.43 109.34 260.3 101.58 267.23 87.79 275.01 103.32 264.21 103.32 266.44 107.82 277.26 107.82 281.96 117.19 290.76 117.19"/><rect class="cls-5" x="324.9" y="70.22" width="7.47" height="23.71"/><polygon class="cls-5" points="7.37 109.94 7.37 70.63 0 70.63 0 109.51 0 109.51 0 117.3 29.48 117.3 29.48 109.94 7.37 109.94"/><polygon class="cls-5" points="98.26 109.94 98.26 70.63 90.89 70.63 90.89 109.51 90.89 109.51 90.89 117.3 120.36 117.3 120.36 109.94 98.26 109.94"/><path class="cls-5" d="M344.48,123.29h4.6v10.46h12V123.29h4.6V149.6h-4.6V137.73h-12V149.6h-4.6Z"/><path class="cls-5" d="M373.88,141.16a7.29,7.29,0,0,0,.31,2.14,5.24,5.24,0,0,0,.94,1.8,4.56,4.56,0,0,0,1.59,1.24,5.3,5.3,0,0,0,2.28.46,5,5,0,0,0,3-.8,4.65,4.65,0,0,0,1.67-2.37h4a7.9,7.9,0,0,1-1.14,2.76,8.11,8.11,0,0,1-2,2.05,8.47,8.47,0,0,1-2.56,1.25,10.45,10.45,0,0,1-3,.42,10.13,10.13,0,0,1-4-.73,8.34,8.34,0,0,1-2.93-2.07,8.6,8.6,0,0,1-1.8-3.17,12.66,12.66,0,0,1-.61-4,11.48,11.48,0,0,1,.64-3.85,9.77,9.77,0,0,1,1.85-3.2,8.61,8.61,0,0,1,2.89-2.2,8.75,8.75,0,0,1,3.83-.81,8.47,8.47,0,0,1,4,.94,8.89,8.89,0,0,1,3,2.49A9.89,9.89,0,0,1,387.6,137a10.83,10.83,0,0,1,.28,4.14Zm9.8-2.76a6.86,6.86,0,0,0-.42-1.92,5.33,5.33,0,0,0-1-1.6,4.84,4.84,0,0,0-1.48-1.11,4.34,4.34,0,0,0-1.93-.42,5,5,0,0,0-2,.39,4.55,4.55,0,0,0-1.55,1.06,5.35,5.35,0,0,0-1,1.61,5.61,5.61,0,0,0-.42,2Z"/><path class="cls-5" d="M391.2,123.29h4.2V149.6h-4.2Z"/><path class="cls-5" d="M400.08,123.29h4.2V149.6h-4.2Z"/><path class="cls-5" d="M417.58,150.11a10.44,10.44,0,0,1-4.07-.75,8.57,8.57,0,0,1-4.9-5.25,12.22,12.22,0,0,1-.65-4.06,12.09,12.09,0,0,1,.65-4,8.76,8.76,0,0,1,1.88-3.17,8.54,8.54,0,0,1,3-2.08,11.28,11.28,0,0,1,8.14,0,8.54,8.54,0,0,1,3,2.08,8.9,8.9,0,0,1,1.88,3.17,12.09,12.09,0,0,1,.65,4,12.22,12.22,0,0,1-.65,4.06,9,9,0,0,1-1.88,3.17,8.8,8.8,0,0,1-3,2.08A10.44,10.44,0,0,1,417.58,150.11Zm0-3.31a4.86,4.86,0,0,0,2.43-.59,5.27,5.27,0,0,0,1.7-1.55,6.84,6.84,0,0,0,1-2.16,9.52,9.52,0,0,0,.32-2.45,9.66,9.66,0,0,0-.32-2.43,6.49,6.49,0,0,0-1-2.15,5.21,5.21,0,0,0-1.7-1.53,5.3,5.3,0,0,0-4.86,0,5.11,5.11,0,0,0-1.7,1.53,6.3,6.3,0,0,0-1,2.15,9.66,9.66,0,0,0-.32,2.43,9.52,9.52,0,0,0,.32,2.45,6.62,6.62,0,0,0,1,2.16,5.17,5.17,0,0,0,1.7,1.55A4.83,4.83,0,0,0,417.58,146.8Z"/><path class="cls-5" d="M441.05,123.29h4.2V133h.07a5.86,5.86,0,0,1,1.07-1.26,6.86,6.86,0,0,1,1.38-.94,8.21,8.21,0,0,1,1.59-.59A7.14,7.14,0,0,1,451,130a9.2,9.2,0,0,1,3.92.79A7.7,7.7,0,0,1,457.7,133a9.37,9.37,0,0,1,1.66,3.22,13.61,13.61,0,0,1,.55,3.95,14.07,14.07,0,0,1-.49,3.72,9.74,9.74,0,0,1-1.51,3.18,7.37,7.37,0,0,1-6.21,3,14.15,14.15,0,0,1-1.94-.13,7.29,7.29,0,0,1-1.86-.49,6.6,6.6,0,0,1-1.6-1,4.63,4.63,0,0,1-1.2-1.55H445v2.62h-4Zm14.66,16.8a9.48,9.48,0,0,0-.33-2.5,6.89,6.89,0,0,0-1-2.16,5.21,5.21,0,0,0-1.66-1.51,4.52,4.52,0,0,0-2.29-.57,4.61,4.61,0,0,0-4,1.84,8.11,8.11,0,0,0-1.35,4.9,9.85,9.85,0,0,0,.35,2.67,6.19,6.19,0,0,0,1.05,2.12,5.25,5.25,0,0,0,1.68,1.4,4.68,4.68,0,0,0,2.26.52,4.77,4.77,0,0,0,2.44-.59,5.22,5.22,0,0,0,1.64-1.53,6.34,6.34,0,0,0,.92-2.14A11.08,11.08,0,0,0,455.71,140.09Z"/><path class="cls-5" d="M466.73,141.16a7.29,7.29,0,0,0,.31,2.14,5.42,5.42,0,0,0,.94,1.8,4.56,4.56,0,0,0,1.59,1.24,5.33,5.33,0,0,0,2.28.46,5,5,0,0,0,3-.8,4.59,4.59,0,0,0,1.67-2.37h4a7.9,7.9,0,0,1-1.14,2.76,8.11,8.11,0,0,1-1.95,2.05,8.47,8.47,0,0,1-2.56,1.25,10.45,10.45,0,0,1-3,.42,10.13,10.13,0,0,1-4-.73,8.34,8.34,0,0,1-2.93-2.07,8.74,8.74,0,0,1-1.8-3.17,12.66,12.66,0,0,1-.61-4,11.24,11.24,0,0,1,.65-3.85A9.57,9.57,0,0,1,465,133a8.6,8.6,0,0,1,6.72-3,8.54,8.54,0,0,1,4,.94,8.85,8.85,0,0,1,3,2.49,10.08,10.08,0,0,1,1.72,3.56,11,11,0,0,1,.27,4.14Zm9.8-2.76a6.86,6.86,0,0,0-.42-1.92,5.33,5.33,0,0,0-1-1.6,4.92,4.92,0,0,0-1.47-1.11,4.41,4.41,0,0,0-1.94-.42,5.07,5.07,0,0,0-2,.39,4.51,4.51,0,0,0-1.54,1.06,5.16,5.16,0,0,0-1,1.61,5.41,5.41,0,0,0-.43,2Z"/><path class="cls-5" d="M499.89,145.36a2.25,2.25,0,0,0,.2,1.1.85.85,0,0,0,.8.34h.44a2.75,2.75,0,0,0,.59-.08v2.91l-.57.17-.72.17-.74.11-.63,0a4.07,4.07,0,0,1-2.13-.51,2.57,2.57,0,0,1-1.11-1.81,7.43,7.43,0,0,1-3.07,1.77,12.09,12.09,0,0,1-3.52.55,8.38,8.38,0,0,1-2.47-.35,6.23,6.23,0,0,1-2.08-1,4.76,4.76,0,0,1-1.44-1.73,5.3,5.3,0,0,1-.54-2.45,5.62,5.62,0,0,1,.65-2.87,4.81,4.81,0,0,1,1.7-1.74,7.61,7.61,0,0,1,2.35-.9q1.31-.27,2.64-.42c.76-.15,1.48-.25,2.17-.32a9.67,9.67,0,0,0,1.82-.31,2.82,2.82,0,0,0,1.26-.68,1.87,1.87,0,0,0,.46-1.38,2.16,2.16,0,0,0-.39-1.33,2.54,2.54,0,0,0-1-.79,3.91,3.91,0,0,0-1.27-.37,10.34,10.34,0,0,0-1.32-.09,5.28,5.28,0,0,0-2.91.73,2.86,2.86,0,0,0-1.29,2.29h-4.2a6.24,6.24,0,0,1,.88-3.06,6.11,6.11,0,0,1,2-1.95,8,8,0,0,1,2.71-1,15.87,15.87,0,0,1,3.09-.3,12.84,12.84,0,0,1,2.77.3,7.77,7.77,0,0,1,2.45.95,5.43,5.43,0,0,1,1.75,1.72,4.71,4.71,0,0,1,.66,2.56Zm-4.2-5.31a5.11,5.11,0,0,1-2.36.76c-.93.09-1.86.21-2.8.39a8.08,8.08,0,0,0-1.29.31,4.2,4.2,0,0,0-1.1.55,2.54,2.54,0,0,0-.76.92,3.28,3.28,0,0,0-.27,1.39,1.75,1.75,0,0,0,.4,1.17,3,3,0,0,0,1,.76,4.93,4.93,0,0,0,1.25.39,8.22,8.22,0,0,0,1.23.11,6.51,6.51,0,0,0,1.52-.19A4.92,4.92,0,0,0,494,146a4,4,0,0,0,1.2-1.13,2.82,2.82,0,0,0,.48-1.67Z"/><path class="cls-5" d="M521.15,149.6H517v-2.66H517a5.74,5.74,0,0,1-2.3,2.31,6.23,6.23,0,0,1-3.12.86q-3.75,0-5.43-1.86t-1.68-5.62V130.55h4.21v11.68a5.18,5.18,0,0,0,.95,3.54,3.53,3.53,0,0,0,2.69,1,5.29,5.29,0,0,0,2.21-.41,4,4,0,0,0,1.44-1.08,4.22,4.22,0,0,0,.79-1.65,8.38,8.38,0,0,0,.24-2.06v-11h4.2Z"/><path class="cls-5" d="M523.66,130.55h3.17v-5.71H531v5.71h3.79v3.13H531v10.17a9.55,9.55,0,0,0,.05,1.14,2.09,2.09,0,0,0,.26.81,1.22,1.22,0,0,0,.61.5,3,3,0,0,0,1.1.16h.89a4.45,4.45,0,0,0,.88-.13v3.24l-1.36.15a12.14,12.14,0,0,1-1.36.07,9.33,9.33,0,0,1-2.68-.31,3.64,3.64,0,0,1-1.58-.92,3.18,3.18,0,0,1-.77-1.53,10.84,10.84,0,0,1-.24-2.1V133.68h-3.17Z"/><path class="cls-5" d="M535.74,130.55h4.61l5,14.22h.08l4.82-14.22h4.39l-7.45,20.08c-.34.86-.67,1.68-1,2.47a9.13,9.13,0,0,1-1.2,2.08,5.34,5.34,0,0,1-1.78,1.44,6.16,6.16,0,0,1-2.72.53,18.82,18.82,0,0,1-2.91-.22v-3.54l1,.17a5.39,5.39,0,0,0,1,.09,3.47,3.47,0,0,0,1.21-.18,2.18,2.18,0,0,0,.8-.54,3.58,3.58,0,0,0,.53-.83,7.31,7.31,0,0,0,.4-1.1l.48-1.48Z"/></g></g></svg>